<svg width="1172" height="69" viewBox="0 0 1172 69" fill="none" xmlns="http://www.w3.org/2000/svg">
<rect x="32.6505" y="61" width="1139.35" height="8" fill="url(#paint0_linear_1_244)"/>
<path d="M1007.55 50H1002.29V35.38H1007.41C1011.73 35.38 1014.71 38.36 1014.71 42.72C1014.71 47.02 1011.79 50 1007.55 50ZM1007.17 37.74H1004.85V47.64H1007.31C1010.23 47.64 1012.01 45.76 1012.01 42.72C1012.01 39.62 1010.19 37.74 1007.17 37.74ZM1019.68 50.26C1017.58 50.26 1016.3 49.04 1016.3 47.18C1016.3 45.36 1017.62 44.22 1019.96 44.04L1022.92 43.82V43.6C1022.92 42.26 1022.12 41.72 1020.88 41.72C1019.44 41.72 1018.64 42.32 1018.64 43.36H1016.56C1016.56 41.22 1018.32 39.82 1021 39.82C1023.66 39.82 1025.3 41.26 1025.3 44V50H1023.16L1022.98 48.54C1022.56 49.56 1021.22 50.26 1019.68 50.26ZM1020.48 48.42C1021.98 48.42 1022.94 47.52 1022.94 46V45.48L1020.88 45.64C1019.36 45.78 1018.78 46.28 1018.78 47.08C1018.78 47.98 1019.38 48.42 1020.48 48.42ZM1030.92 50H1028.48V42.16H1026.58V40.12H1028.48V37.04H1030.92V40.12H1032.84V42.16H1030.92V50ZM1038.68 50.26C1035.74 50.26 1033.68 48.12 1033.68 45.06C1033.68 41.96 1035.7 39.82 1038.6 39.82C1041.56 39.82 1043.44 41.8 1043.44 44.88V45.62L1036 45.64C1036.18 47.38 1037.1 48.26 1038.72 48.26C1040.06 48.26 1040.94 47.74 1041.22 46.8H1043.48C1043.06 48.96 1041.26 50.26 1038.68 50.26ZM1038.62 41.82C1037.18 41.82 1036.3 42.6 1036.06 44.08H1041.02C1041.02 42.72 1040.08 41.82 1038.62 41.82ZM1047.23 42.96C1046.35 42.96 1045.61 42.24 1045.61 41.38C1045.61 40.5 1046.35 39.78 1047.23 39.78C1048.11 39.78 1048.85 40.5 1048.85 41.38C1048.85 42.24 1048.11 42.96 1047.23 42.96ZM1047.23 50.24C1046.35 50.24 1045.61 49.52 1045.61 48.66C1045.61 47.78 1046.35 47.06 1047.23 47.06C1048.11 47.06 1048.85 47.78 1048.85 48.66C1048.85 49.52 1048.11 50.24 1047.23 50.24ZM1059.61 37.68H1056.41V35.38H1062.07V50H1059.61V37.68ZM1064.4 45.86C1064.4 44.12 1065.38 42.72 1066.9 42.14C1065.62 41.56 1064.92 40.46 1064.92 39.04C1064.92 36.72 1066.98 35.12 1070 35.12C1073 35.12 1075.02 36.7 1075.02 39.08C1075.02 40.5 1074.3 41.6 1073 42.14C1074.54 42.68 1075.54 44.1 1075.54 45.86C1075.54 48.5 1073.36 50.24 1069.96 50.24C1066.58 50.24 1064.4 48.52 1064.4 45.86ZM1067.24 39.26C1067.24 40.48 1068.3 41.26 1069.96 41.26C1071.6 41.26 1072.64 40.5 1072.64 39.28C1072.64 38.06 1071.6 37.3 1069.96 37.3C1068.3 37.3 1067.24 38.06 1067.24 39.26ZM1066.9 45.68C1066.9 47.1 1068.08 47.98 1069.98 47.98C1071.84 47.98 1073.02 47.1 1073.02 45.68C1073.02 44.26 1071.84 43.38 1069.96 43.38C1068.08 43.38 1066.9 44.26 1066.9 45.68ZM1082.17 45.88V45.02H1084.63V45.88C1084.63 47 1085.25 47.88 1086.69 47.88C1088.13 47.88 1088.73 47.06 1088.73 45.78V35.38H1091.29V45.92C1091.29 48.5 1089.49 50.26 1086.71 50.26C1083.71 50.26 1082.17 48.4 1082.17 45.88ZM1100.76 40.12H1103.2V50H1100.94L1100.76 48.68C1100.16 49.62 1098.88 50.26 1097.56 50.26C1095.28 50.26 1093.94 48.72 1093.94 46.3V40.12H1096.38V45.44C1096.38 47.32 1097.12 48.08 1098.48 48.08C1100.02 48.08 1100.76 47.18 1100.76 45.3V40.12ZM1108.16 50H1105.72V40.12H1107.98L1108.18 41.4C1108.8 40.4 1110 39.82 1111.34 39.82C1113.82 39.82 1115.1 41.36 1115.1 43.92V50H1112.66V44.5C1112.66 42.84 1111.84 42.04 1110.58 42.04C1109.08 42.04 1108.16 43.08 1108.16 44.68V50ZM1132.69 49.98L1122.55 50V48.08L1127.33 44.04C1129.31 42.36 1129.97 41.4 1129.97 40C1129.97 38.34 1129.07 37.4 1127.53 37.4C1125.93 37.4 1124.93 38.52 1124.91 40.4H1122.37C1122.39 37.2 1124.43 35.12 1127.53 35.12C1130.65 35.12 1132.59 36.9 1132.59 39.86C1132.59 41.9 1131.47 43.44 1129.25 45.34L1126.61 47.6H1132.69V49.98ZM1134.27 42.72C1134.27 38.18 1136.71 35.1 1140.45 35.1C1144.19 35.1 1146.65 38.18 1146.65 42.72C1146.65 47.24 1144.33 50.26 1140.45 50.26C1136.57 50.26 1134.27 47.24 1134.27 42.72ZM1136.79 42.72C1136.79 46.1 1138.15 48 1140.45 48C1142.77 48 1144.13 46.1 1144.13 42.72C1144.13 39.26 1142.77 37.36 1140.45 37.36C1138.15 37.36 1136.79 39.26 1136.79 42.72ZM1158.57 49.98L1148.43 50V48.08L1153.21 44.04C1155.19 42.36 1155.85 41.4 1155.85 40C1155.85 38.34 1154.95 37.4 1153.41 37.4C1151.81 37.4 1150.81 38.52 1150.79 40.4H1148.25C1148.27 37.2 1150.31 35.12 1153.41 35.12C1156.53 35.12 1158.47 36.9 1158.47 39.86C1158.47 41.9 1157.35 43.44 1155.13 45.34L1152.49 47.6H1158.57V49.98ZM1171.25 47.22H1169.47V50H1167.05V47.22H1159.63V44.98L1166.25 35.38H1169.47V44.98H1171.25V47.22ZM1162.35 44.98H1167.05V38.14L1162.35 44.98Z" fill="#444444"/>
<path d="M41.8075 68H43.3918L42.7103 66.5698L34.5865 49.5227L43.7676 32.2276L44.5474 30.7587H42.8844H35.0774H34.4761L34.1942 31.2898L29.8223 39.5254L23.6057 26.4804C26.1331 25.3939 28.1911 23.8751 29.7457 21.9089L29.7484 21.9054C31.5347 19.6251 32.4013 16.8259 32.4013 13.5732C32.4013 11.1777 31.9139 9.11358 30.866 7.44613C29.8705 5.8119 28.484 4.47355 26.7327 3.42753L26.7299 3.42588C25.1733 2.50301 23.4335 1.87414 21.5212 1.53093C19.6318 1.17295 17.3067 1 14.5618 1H2H1V2V44.5494V45.5494H2H7.96464H8.96464V44.5494V28.6325H15.7184L24.761 49.0596L15.486 66.5311L14.7062 68H16.3693H24.1765H24.7778L25.0597 67.4689L29.3406 59.4048L32.882 67.4048L33.1455 68H33.7964H41.8075ZM23.5655 11.165L23.5708 11.1764L23.5764 11.1877C23.9594 11.9616 24.1656 12.8817 24.1656 13.9733C24.1656 15.4905 23.9548 16.6712 23.5814 17.5568L23.5814 17.5568L23.5776 17.566C23.2192 18.4402 22.6523 19.2304 21.8547 19.9373C21.0091 20.673 19.9702 21.1935 18.7115 21.4844C17.3944 21.7694 15.8238 21.9175 13.9895 21.9175H8.96464V7.85789H14.9836C16.5461 7.85789 17.8755 7.96933 18.9814 8.18269L18.989 8.18416L18.9967 8.18551C20.074 8.37604 20.9696 8.71597 21.7046 9.18619L21.7046 9.18627L21.7164 9.19364C22.6237 9.75638 23.219 10.4179 23.5655 11.165Z" fill="url(#paint1_linear_1_244)" stroke="url(#paint2_linear_1_244)" stroke-width="2"/>
<defs>
<linearGradient id="paint0_linear_1_244" x1="32.6505" y1="65" x2="1172" y2="65.0002" gradientUnits="userSpaceOnUse">
<stop stop-color="#2BAA48"/>
<stop offset="1" stop-color="#85DB47"/>
</linearGradient>
<linearGradient id="paint1_linear_1_244" x1="64.3577" y1="84" x2="-17.561" y2="49.0643" gradientUnits="userSpaceOnUse">
<stop stop-color="#099747"/>
<stop offset="1" stop-color="#85DB47"/>
</linearGradient>
<linearGradient id="paint2_linear_1_244" x1="64.3577" y1="84" x2="-17.561" y2="49.0643" gradientUnits="userSpaceOnUse">
<stop stop-color="#099747"/>
<stop offset="1" stop-color="#85DB47"/>
</linearGradient>
</defs>
</svg>
